<?xml version="1.0" standalone="yes"?>
<svg xmlns="http://www.w3.org/2000/svg" width="261" height="209">
<path style="fill:#382214; stroke:none;" d="M0 0L0 106L61 107L59 105L59 104L62 102C59.1697 95.7461 60.2993 87.5875 68 87C67.7087 78.6483 69.7571 71.1212 74 64L75 64L80 68L82 60L83 63C92.4226 59.0823 97.9921 58.9171 108 59L108 51C124 51 138.272 55.1125 154 51L156 59C162.918 62.476 163.273 70.9236 167 77L168 77L175 77C188.787 50.644 224.98 54.3266 242 74L260.397 58.6096L261 41L261 0L0 0z"/>
<path style="fill:#8d6c37; stroke:none;" d="M108.667 51.3333L109.333 51.6667L108.667 51.3333z"/>
<path style="fill:#bd9d53; stroke:none;" d="M110 51L110 52L114 52L110 51z"/>
<path style="fill:#8d6c37; stroke:none;" d="M114 51L114 52L122 52L114 51M152 51L152 52L155 53L152 51z"/>
<path style="fill:#bd9d53; stroke:none;" d="M108 52L108 55L109 55L108 52z"/>
<path style="fill:#e8d3a3; stroke:none;" d="M109 52L110 61L121 66L118 74L129 82L123 83L124 87C130.804 86.9194 132.152 84.5207 133 78L143 77L142 75L144 73L145 73L146 73L146 75L153 69L148 64L146 65L136 59L136 61L127.701 54.314L109 52z"/>
<path style="fill:#bd9d53; stroke:none;" d="M118 52L118 53L125 53L118 52z"/>
<path style="fill:#8d6c37; stroke:none;" d="M125 52L125 53L128 53L125 52M136 52L136 53L140 54L140 53L136 52M147.667 52.3333L148.333 52.6667L147.667 52.3333z"/>
<path style="fill:#bd9d53; stroke:none;" d="M149 52L150 53L149 52z"/>
<path style="fill:#b7a991; stroke:none;" d="M150 52L150 53L154 53L150 52z"/>
<path style="fill:#bd9d53; stroke:none;" d="M126 53L126 54L137 58L137 57L134 54L126 53z"/>
<path style="fill:#8d6c37; stroke:none;" d="M129.667 53.3333L130.333 53.6667L129.667 53.3333M133.667 53.3333L134.333 53.6667L133.667 53.3333z"/>
<path style="fill:#bd9d53; stroke:none;" d="M135 53L136 54L135 53z"/>
<path style="fill:#b7a991; stroke:none;" d="M136 53L136 54L140 55L140 54L136 53z"/>
<path style="fill:#8d6c37; stroke:none;" d="M145 53L146 54L145 53z"/>
<path style="fill:#bd9d53; stroke:none;" d="M146 53L147 54L146 53z"/>
<path style="fill:#b7a991; stroke:none;" d="M147 53L148 54L147 53z"/>
<path style="fill:#e8d3a3; stroke:none;" d="M135 54L145 59.6451L157 69L156 65C158.991 64.5907 158.668 62.6914 158 60L154 61C155.701 49.4294 143.098 54.6829 135 54z"/>
<path style="fill:#bd9d53; stroke:none;" d="M154 53L155 54L154 53z"/>
<path style="fill:#b7a991; stroke:none;" d="M134 54L133 56L135 56L134 54z"/>
<path style="fill:#bd9d53; stroke:none;" d="M140 54L141 55L140 54z"/>
<path style="fill:#8d6c37; stroke:none;" d="M141 54L141 55L144 55L141 54z"/>
<path style="fill:#bd9d53; stroke:none;" d="M144 54L145 55L144 54z"/>
<path style="fill:#b7a991; stroke:none;" d="M145 54L146 55L145 54M154 54L155 55L154 54z"/>
<path style="fill:#8d6c37; stroke:none;" d="M155.333 54.6667L155.667 55.3333L155.333 54.6667M108 55L108 59L109 59L108 55z"/>
<path style="fill:#b7a991; stroke:none;" d="M142.667 55.3333L143.333 55.6667L142.667 55.3333M135 56L136 57L135 56M154 56L155 57L154 56z"/>
<path style="fill:#bd9d53; stroke:none;" d="M155 56L156 57L155 56z"/>
<path style="fill:#b7a991; stroke:none;" d="M132 59L132 60L136 61L136 59L146 65L148 64L154 71C154.47 62.8145 145.47 57.4021 138 59L139 57L132 59z"/>
<path style="fill:#8d6c37; stroke:none;" d="M155 57L163 69L164 69L155 57M93.6667 58.3333L94.3333 58.6667L93.6667 58.3333z"/>
<path style="fill:#bd9d53; stroke:none;" d="M95 58L96 59L95 58z"/>
<path style="fill:#b7a991; stroke:none;" d="M96.6667 58.3333L97.3333 58.6667L96.6667 58.3333z"/>
<path style="fill:#8d6c37; stroke:none;" d="M98 58L98 59L101 59L98 58z"/>
<path style="fill:#b7a991; stroke:none;" d="M109 58L105 59L105 60L108 60L108 61L95 64L95 65L98 65L96 71L92 71L94 64L91 65L92 69L90 72L100 74C100.197 63.7237 116.419 74.333 121 76L121 75L118 74L121 66L109 58M130 58L131 59L130 58z"/>
<path style="fill:#bd9d53; stroke:none;" d="M138.667 58.3333L139.333 58.6667L138.667 58.3333z"/>
<path style="fill:#b7a991; stroke:none;" d="M154 58L157 61L157 60L154 58z"/>
<path style="fill:#8d6c37; stroke:none;" d="M175 77L168 77L167 77L164 70L163 70L166 78L162 78L160 82L163 80L177 80C176.667 73.61 181.131 70.4218 186 66.9236C203.287 54.5045 216.039 61.8672 233 69L233 70L229 70L229 71L235 71L241 77L242 77L261 61L261 60L242 74C229.673 52.4763 183.838 51.2184 175 77M90 59L91 60L90 59z"/>
<path style="fill:#b7a991; stroke:none;" d="M91.6667 59.3333L92.3333 59.6667L91.6667 59.3333z"/>
<path style="fill:#e8d3a3; stroke:none;" d="M81 61L81 78L72 73L74 68L80 70L80 69L75 65L74 65C69.5089 71.3636 67.9437 79.2766 69 87L62 88L60 104C63.5187 109.334 64.9377 125.331 62 131L64 149C60.8446 148.514 50.8088 149.429 52.4614 154.957C53.9568 159.958 66.3113 162.077 68.6512 156.927C71.0461 151.655 66.9548 141.429 68 135L71 137L68 133L70 129L65 129L64 126C68.6426 122.733 68.5943 114.313 64 111L64 106L68 104L65 98L66 95L63 89L78 89C77.5485 81.8043 81.3058 75.3993 89 82L90 82L91 75L90 75L90 78L87 77L88 70L84 70L82 64L89 63C87.8307 66.8873 87.6012 70.3334 91 73L94 64L92 71L96 71C96.8562 68.059 98.6557 65.8039 95 65L95 64L108 61L81 61z"/>
<path style="fill:#b7a991; stroke:none;" d="M101 59L101 60L104 60L101 59z"/>
<path style="fill:#bd9d53; stroke:none;" d="M108 59L109 60L108 59M142 59L152 66L142 59M155 59L156 60L155 59M177 80L163 80L160 82L162 78L166 78L159 64L161 66L144 74C140.929 77.4091 137.826 76.6825 134.433 79.027C129.5 82.4351 131.509 86.7555 124 87L123 83L128 82C125.749 75.8593 99.5663 62.9576 100 74L91 71C91.0722 77.2296 90.9678 81.5803 84 83L86 79C81.6765 79.5618 78.2016 79.9944 76 84L78 89L63 89L66 95L65 98L68 99C67.4199 102.165 65.2577 105.952 65.4275 109.075C65.7978 115.885 70.6371 120.471 64 126L70 129L71 137C67.2842 137.796 68 140.637 68 144C72.2922 141.799 73.6829 138.724 74 134L79 134L79 133L66 127L66 126L71 127L70 124L76 124L78 120L70 117L73 117L75 114L67 111L67 110L70 110L70 109L67 109L67 108L77 103L72 94L71 94L69 96L67 92L122 92L120 105L118 105L120 107L119 110L122 110L120 119L119 119L117 117C117.137 119.916 117.017 121.63 120 122L114 123L116 131L120 130L124 134L124 135L121 134L122 145C125.28 147.744 127.187 152.273 122 154C122.692 157.228 124.101 157.02 127 156L124 160C136.461 160.481 149.24 156.577 161 152.305C169.439 149.239 176.825 144.922 186 146L184 150L188 159C192.67 156.488 194.329 151.122 194 146L203 146L203 145C197.836 145 186.432 147.211 183.752 141.366C182.151 137.875 188.398 131.817 183.678 129.618C179.996 127.903 174.52 130.919 171 131.964C160.707 135.019 150.282 137.303 140 140C138.284 137.007 136.582 138.596 135 141L133 136L138 136L143 135C146.239 131.945 148.769 132.007 153 133C156.71 121.24 183.465 129.382 186 114L184 117L181 114L143 121L128 128C124.205 124.421 122.806 122.275 124 117L134 117C137.933 115.315 143.184 112.597 147 115L148 115L149 115L162 110.164L186 102L185 98C174.45 104.367 154.445 102.959 142 104.778C137.692 105.408 128.105 103.921 127 109L122 102C126.798 99.0392 131.343 95.0369 137 99C153.057 92.6765 169.639 88.709 187 88C186.603 80.7369 185.064 79.0157 178 77C184.574 67.8613 194.924 63.0306 206 63L189.394 105L196.152 125.991L220 130.003L261 132L261 129C240.55 129.878 221.089 129.594 201 125C209.342 114.924 225.718 113.357 238 112L231 122L261 127L261 123L237 121L237 119C247.818 114.457 249.589 113.392 261 116C260.004 110.204 253.951 109.255 250.573 104.907C245.172 97.9555 246.239 84.0768 254 80L255 87C263.353 88.5904 261 77.5556 261 72L246 79L253 67.25L261 61C252.363 64.4225 247.905 70.1693 242 77L241 77L235 71L229 71L229 70L233 70C221.545 58.3544 203.048 56.5183 189 64.3488C182.976 67.7065 175.696 72.3968 177 80z"/>
<path style="fill:#8d6c37; stroke:none;" d="M81 60L82 61L81 60M88 60L89 61L88 60z"/>
<path style="fill:#bd9d53; stroke:none;" d="M89 60L90 61L89 60z"/>
<path style="fill:#b7a991; stroke:none;" d="M158 60L159 61L158 60z"/>
<path style="fill:#8d6c37; stroke:none;" d="M79 61L80 62L79 61z"/>
<path style="fill:#b7a991; stroke:none;" d="M80 61L81 62L80 61z"/>
<path style="fill:#8d6c37; stroke:none;" d="M82.3333 61.6667L82.6667 62.3333L82.3333 61.6667M86 61L87 62L86 61z"/>
<path style="fill:#b7a991; stroke:none;" d="M87 61L88 62L87 61M159 61L159 64L160 64L159 61M79 62L79 65L80 65L79 62z"/>
<path style="fill:#bd9d53; stroke:none;" d="M84 62L85 63L84 62z"/>
<path style="fill:#b7a991; stroke:none;" d="M85 62L86 63L85 62M95 62L96 63L95 62z"/>
<path style="fill:#bd9d53; stroke:none;" d="M107 62L104 63L103 65L103 66L111 64L111 63L107 64L107 62z"/>
<path style="fill:#b7a991; stroke:none;" d="M88 63L82 64L84 70L88 70C87.1614 73.5133 86.9939 75.7619 90 78L91 73L88 63M153 63L154 64L153 63z"/>
<path style="fill:#e8d3a3; stroke:none;" d="M178 77L185.686 81.2785L184.885 92L185 120C189.635 124.989 186.353 137.496 186 144L203 144L201 132L204 131L191 124L191 123C196.832 117.217 188.931 110.934 189.758 104C191.507 89.3572 203.825 77.0653 206 63C195.553 63.0069 182.866 66.7811 178 77z"/>
<path style="fill:#8d6c37; stroke:none;" d="M74 64L75 65L74 64z"/>
<path style="fill:#b7a991; stroke:none;" d="M158 64L156 65L157 69L161 66L158 64z"/>
<path style="fill:#e8d3a3; stroke:none;" d="M246 79C256.071 77.2948 260.963 74.8968 261 64C252.628 64.9268 247.872 71.1904 246 79z"/>
<path style="fill:#bd9d53; stroke:none;" d="M73 65L74 66L73 65z"/>
<path style="fill:#b7a991; stroke:none;" d="M75 65L76 66L75 65z"/>
<path style="fill:#8d6c37; stroke:none;" d="M79.3333 65.6667L79.6667 66.3333L79.3333 65.6667M72 66L73 67L72 66z"/>
<path style="fill:#b7a991; stroke:none;" d="M76 66L77 67L76 66z"/>
<path style="fill:#bd9d53; stroke:none;" d="M84.6667 66.3333L85.3333 66.6667L84.6667 66.3333z"/>
<path style="fill:#b7a991; stroke:none;" d="M253 66L254 67L253 66z"/>
<path style="fill:#8d6c37; stroke:none;" d="M71 67L72 68L71 67z"/>
<path style="fill:#bd9d53; stroke:none;" d="M77 67L78 68L77 67z"/>
<path style="fill:#8d6c37; stroke:none;" d="M78 67L79 68L78 67z"/>
<path style="fill:#b7a991; stroke:none;" d="M80 67L81 75L82 75L80 67M161 67L162 68L161 67M252 67L253 68L252 67M71 68L72 69L71 68M74 68L72 73L74 68z"/>
<path style="fill:#8d6c37; stroke:none;" d="M79 68L80 69L79 68z"/>
<path style="fill:#bd9d53; stroke:none;" d="M91 68L92 69L91 68z"/>
<path style="fill:#e8d3a3; stroke:none;" d="M106 68L106 69L109 69L106 68z"/>
<path style="fill:#8d6c37; stroke:none;" d="M70 69L71 70L70 69z"/>
<path style="fill:#bd9d53; stroke:none;" d="M75 69C74.4189 74.2515 76.543 77.206 82 76C80.6842 71.8529 79.4271 69.7543 75 69z"/>
<path style="fill:#b7a991; stroke:none;" d="M76 69L77 70L76 69M121.333 69.6667L121.667 70.3333L121.333 69.6667z"/>
<path style="fill:#bd9d53; stroke:none;" d="M70 70L71 71L70 70z"/>
<path style="fill:#b7a991; stroke:none;" d="M249 70L250 71L249 70z"/>
<path style="fill:#e8d3a3; stroke:none;" d="M96.6667 71.3333L97.3333 71.6667L96.6667 71.3333M115.667 71.3333L116.333 71.6667L115.667 71.3333z"/>
<path style="fill:#8d6c37; stroke:none;" d="M223 71L222 74L220 72L219 72C215.241 80.8473 186.458 94.1779 206 105C209.087 97.5515 213.828 82.3438 222 80L223 71M69.3333 72.6667L69.6667 73.3333L69.3333 72.6667M104 73L104 74L114 76L104 73z"/>
<path style="fill:#b7a991; stroke:none;" d="M144.667 73.3333L145.333 73.6667L144.667 73.3333M148 74L149 75L148 74M75 75L76 76L75 75z"/>
<path style="fill:#8d6c37; stroke:none;" d="M80 75L81 76L80 75z"/>
<path style="fill:#b7a991; stroke:none;" d="M140 75L141 76L140 75M142 75L143 76L142 75M69 76L70 77L69 76M76 76L77 77L76 76M81 76L82 77L81 76z"/>
<path style="fill:#8d6c37; stroke:none;" d="M92 76L89 87L104 87L104 86C98.9423 83.6909 95.4709 81.9752 97 76L92 76z"/>
<path style="fill:#b7a991; stroke:none;" d="M122.667 76.3333L123.333 76.6667L122.667 76.3333z"/>
<path style="fill:#bd9d53; stroke:none;" d="M169 76L173 78L173 77L169 76z"/>
<path style="fill:#b7a991; stroke:none;" d="M170 76L170 78L172 78L172 76L170 76z"/>
<path style="fill:#8d6c37; stroke:none;" d="M68.3333 77.6667L68.6667 78.3333L68.3333 77.6667z"/>
<path style="fill:#b7a991; stroke:none;" d="M79.6667 77.3333L80.3333 77.6667L79.6667 77.3333M91.3333 77.6667L91.6667 78.3333L91.3333 77.6667z"/>
<path style="fill:#8d6c37; stroke:none;" d="M108 77L109 78L108 77z"/>
<path style="fill:#b7a991; stroke:none;" d="M126 77L127 78L126 77M81 78L82 79L81 78z"/>
<path style="fill:#e8d3a3; stroke:none;" d="M96 78L98 81L96 78z"/>
<path style="fill:#b7a991; stroke:none;" d="M97 78L98 79L97 78M133 78L134 79L133 78M156 78L157 79L156 78M82 79L83 80L82 79M90.3333 79.6667L90.6667 80.3333L90.3333 79.6667z"/>
<path style="fill:#bd9d53; stroke:none;" d="M95.3333 79.6667L95.6667 80.3333L95.3333 79.6667z"/>
<path style="fill:#b7a991; stroke:none;" d="M98.3333 79.6667L98.6667 80.3333L98.3333 79.6667z"/>
<path style="fill:#8d6c37; stroke:none;" d="M108 79L108 80L113 81L110 82L110 83L116 86C112.166 85.0104 108.658 83.5353 106 87L118 87C117.428 80.3403 114.382 79.279 108 79M120 80L125 82L120 80z"/>
<path style="fill:#b7a991; stroke:none;" d="M127 79L128 80L127 79z"/>
<path style="fill:#bd9d53; stroke:none;" d="M217 79L218 80L217 79z"/>
<path style="fill:#b7a991; stroke:none;" d="M69.3333 80.6667L69.6667 81.3333L69.3333 80.6667M77 80L78 81L77 80M84 83L85 83C86.5642 80.3929 87.5874 80.6504 87 83L88 83L89 80L84 83M96 80L97 81L96 80z"/>
<path style="fill:#8d6c37; stroke:none;" d="M233.956 80.8009C222.279 82.8773 219.829 108.17 233.83 105.703C243.345 104.027 242.62 94.6782 239.781 88C238.623 85.277 237.944 80.0919 233.956 80.8009M261 112L261 87L255 87L254 80C239.085 85.1309 249.396 108.585 261 112z"/>
<path style="fill:#b7a991; stroke:none;" d="M76 81L77 82L76 81z"/>
<path style="fill:#8d6c37; stroke:none;" d="M81 81L82 82L81 81z"/>
<path style="fill:#e8d3a3; stroke:none;" d="M85 83L88 81L85 83z"/>
<path style="fill:#b7a991; stroke:none;" d="M128 81L129 82L128 81M68 82L69 83L68 82z"/>
<path style="fill:#8d6c37; stroke:none;" d="M67 83L68 84L67 83z"/>
<path style="fill:#b7a991; stroke:none;" d="M72 83L73 84L72 83z"/>
<path style="fill:#8d6c37; stroke:none;" d="M81 83L81 84L86 86L81 83z"/>
<path style="fill:#b7a991; stroke:none;" d="M101.667 83.3333L102.333 83.6667L101.667 83.3333M67 84L69 86L67 84z"/>
<path style="fill:#bd9d53; stroke:none;" d="M72 84L73 85L72 84z"/>
<path style="fill:#e8d3a3; stroke:none;" d="M104 84L105 85L104 84z"/>
<path style="fill:#8d6c37; stroke:none;" d="M144 86L151 85L144 86z"/>
<path style="fill:#382214; stroke:none;" d="M251 84L252 85L251 84z"/>
<path style="fill:#8d6c37; stroke:none;" d="M67 85L68 86L67 85z"/>
<path style="fill:#bd9d53; stroke:none;" d="M68 86L69 87L68 86z"/>
<path style="fill:#e8d3a3; stroke:none;" d="M157 86L158 87L157 86M162 86L163 87L162 86z"/>
<path style="fill:#8d6c37; stroke:none;" d="M62 87L62 88L67 88L62 87z"/>
<path style="fill:#bd9d53; stroke:none;" d="M67 87L68 88L67 87z"/>
<path style="fill:#b7a991; stroke:none;" d="M176 87L177 88L176 87M61 88L62 89L61 88M137 99C132.543 93.9526 125.749 98.5752 122 102L127 109C127.854 103.878 138.501 106.375 144 105C151.253 103.187 157.083 102.729 164 101C169.335 99.6661 171.901 103.733 176 101C179.061 98.9594 184.813 99.2539 185 100L186 100L186 88C170.103 88.365 151.019 91.1629 137 99z"/>
<path style="fill:#bd9d53; stroke:none;" d="M61 89L62 90L61 89z"/>
<path style="fill:#8d6c37; stroke:none;" d="M61.3333 90.6667L61.6667 91.3333L61.3333 90.6667z"/>
<path style="fill:#e8d3a3; stroke:none;" d="M182 90L183 91L182 90z"/>
<path style="fill:#8d6c37; stroke:none;" d="M67 92L69 96L71 94L72 94L77 103L67 108L67 109L70 109L70 110L67 110L67 111L75 114L70 117L78 120L75 121L76 124L70 124L71 127L66 126L66 127L79 133L79 134L74 134C73.3576 138.805 71.3763 141.86 67 144C70.4495 149.562 77.2594 151.439 70 158L77 162L77 161L75 161L75 160L80 161L80 157C85.5803 160.876 88.3147 159.179 93 155L92 158L106 156L107 159L115 158L123 164L127 164L127 165L123 165C115.459 170.492 94.1673 163.723 85 163L85 164L138 177L138 178L81 167L81 166L84 166L84 165L73 166L73 165L76 165L76 164L60 164L60 165L66 165L66 166L48 166L46 169L56 174L56 173L51 172L51 171C78.2185 167.56 100.68 178.456 127 182L127 183L68 177L68 178L136 188.424L178 195L177 198L179 196L184 196C174.607 204.93 162.663 202.55 151 202.039C129.717 201.107 108.29 201.964 87 202C75.7423 202.019 65.0501 207.967 57 198L24 191C20.4076 197.494 6.65523 195 0 195L0 198L11 200L11 201L0 202L0 209L261 209L261 194L205 192L205 191L210 191L211 178L170 178.91L121 170L121 169C154.249 169 186.287 175.116 219 167.402C229.111 165.018 235.632 167.087 245 161L244 158L248 158L249 153C233.533 146.154 210.78 146.002 194 146C194.043 151.171 191.99 155.758 188 159L184 150L186 146C175.979 144.168 167.259 149.831 158 152.997C146.645 156.879 135.476 158.346 124 160L127 156L122 154C127.523 152.885 126.064 147.241 122 145L121 134L124 135L124 134L120 130L116 131L114 123L120 122L117 117L119 119L120 119L122 110L119 110L120 107C117.393 105.436 117.65 104.413 120 105L118 103L122 92C105.322 92.0092 82.7946 87.3313 67 92z"/>
<path style="fill:#bd9d53; stroke:none;" d="M61 92L62 93L61 92z"/>
<path style="fill:#b7a991; stroke:none;" d="M61 93L62 94L61 93z"/>
<path style="fill:#bd9d53; stroke:none;" d="M61 94L62 95L61 94z"/>
<path style="fill:#8d6c37; stroke:none;" d="M61.3333 95.6667L61.6667 96.3333L61.3333 95.6667z"/>
<path style="fill:#bd9d53; stroke:none;" d="M80 95L82 97L82 95L80 95M86 96L87 97L86 96z"/>
<path style="fill:#b7a991; stroke:none;" d="M63 97L63 99L65 99L63 97z"/>
<path style="fill:#8d6c37; stroke:none;" d="M60 98L60 101L61 101L60 98z"/>
<path style="fill:#bd9d53; stroke:none;" d="M86 98L87 99L86 98M88 98L89 99L88 98z"/>
<path style="fill:#b7a991; stroke:none;" d="M67 99L68 100L67 99z"/>
<path style="fill:#bd9d53; stroke:none;" d="M93 99L94 100L93 99z"/>
<path style="fill:#b7a991; stroke:none;" d="M61 100L62 101L61 100z"/>
<path style="fill:#e8d3a3; stroke:none;" d="M125 100L126 101L125 100z"/>
<path style="fill:#b7a991; stroke:none;" d="M67 101L68 102L67 101z"/>
<path style="fill:#8d6c37; stroke:none;" d="M61 102L62 103L61 102z"/>
<path style="fill:#b7a991; stroke:none;" d="M149 115L148 115L147 115C143.963 111.664 137.245 114.79 134 117L124 117C122.477 122.21 123.574 124.972 128 128L143 121C154.674 122.915 169.672 116.729 181 114L184 117L187 102L161 110.164L149 115z"/>
<path style="fill:#8d6c37; stroke:none;" d="M60 103L61 104L60 103z"/>
<path style="fill:#bd9d53; stroke:none;" d="M116 103L117 104L116 103z"/>
<path style="fill:#8d6c37; stroke:none;" d="M59 104L60 105L59 104z"/>
<path style="fill:#b7a991; stroke:none;" d="M67 104L68 105L67 104z"/>
<path style="fill:#8d6c37; stroke:none;" d="M69 104L69 106L71 106L71 104L69 104z"/>
<path style="fill:#b7a991; stroke:none;" d="M60.6667 105.333L61.3333 105.667L60.6667 105.333M65.6667 105.333L66.3333 105.667L65.6667 105.333z"/>
<path style="fill:#8d6c37; stroke:none;" d="M120.333 105.667L120.667 106.333L120.333 105.667M0 109C13.8341 105.338 32.502 109 47 109C51.0959 109 61.1939 111.052 62 106C46.9159 107.965 30.3201 106 15 106C10.7121 106 1.0846 103.939 0 109z"/>
<path style="fill:#b7a991; stroke:none;" d="M64.3333 106.667L64.6667 107.333L64.3333 106.667z"/>
<path style="fill:#8d6c37; stroke:none;" d="M248 112L249 107C244.074 106.244 243.613 110.455 248 112z"/>
<path style="fill:#b7a991; stroke:none;" d="M62 107L63 108L62 107z"/>
<path style="fill:#bd9d53; stroke:none;" d="M1 108L1 109L7 109L1 108M8 108L8 109L16 109L8 108M58 109L58 110L63 109L58 109z"/>
<path style="fill:#b7a991; stroke:none;" d="M0 109L0.588735 139.741L12 150.37L23 156L29 160C36.2013 170.985 48.9767 163.817 59 165L59 164L56 164L56 163L69 161L69 160C64.5724 160.224 55.4491 159.747 53.037 155.181C50.5208 150.419 61.3981 148.86 64 149L62 131L63 109L0 109z"/>
<path style="fill:#bd9d53; stroke:none;" d="M44 109L45 110L44 109M55.6667 109.333L56.3333 109.667L55.6667 109.333z"/>
<path style="fill:#b7a991; stroke:none;" d="M64 110L65 111L64 110M132 110L133 111L132 110M65 111L66 112L65 111z"/>
<path style="fill:#e8d3a3; stroke:none;" d="M124 111L125 112L124 111z"/>
<path style="fill:#bd9d53; stroke:none;" d="M119 112L120 113L119 112z"/>
<path style="fill:#8d6c37; stroke:none;" d="M201 125C219.861 130.991 241.503 130.539 261 129C256.264 121.258 239.028 124.545 231 122L238 112C227.068 112.596 206.852 114.619 201 125z"/>
<path style="fill:#b7a991; stroke:none;" d="M237 119L237 121L261 123L258 118L261 117C251.847 110.187 245.811 113.587 237 119M67 113L68 114L67 113M67 116L67 120L68 120L67 116z"/>
<path style="fill:#e8d3a3; stroke:none;" d="M258 118L261 121L261 117L258 118z"/>
<path style="fill:#b7a991; stroke:none;" d="M185 118L186 119L185 118z"/>
<path style="fill:#bd9d53; stroke:none;" d="M81 119L85 124L81 119z"/>
<path style="fill:#e8d3a3; stroke:none;" d="M127 119L128 120L127 119z"/>
<path style="fill:#b7a991; stroke:none;" d="M153 133C148.998 131.82 145.602 131.393 143 135L138 136L133 136L135 141L136 138L140 140C150.896 138.551 162.391 134.96 173 131.653C178.219 130.026 183.94 127.219 186 134C186.728 132.266 186.914 130.895 187 128.981C187.691 113.565 175.477 123.599 166 126.151C161.329 127.409 154.102 127.57 153 133z"/>
<path style="fill:#382214; stroke:none;" d="M90.6667 120.333L91.3333 120.667L90.6667 120.333M93 120L93 122L95 122L93 120M101 120L105 126L106 126L101 120z"/>
<path style="fill:#b7a991; stroke:none;" d="M67 121L67 124L68 124L67 121z"/>
<path style="fill:#bd9d53; stroke:none;" d="M87 121L91 124L91 123L87 121M79 122L80 123L79 122z"/>
<path style="fill:#b7a991; stroke:none;" d="M192 122L197 127L197 126L192 122z"/>
<path style="fill:#bd9d53; stroke:none;" d="M96 125L99 127L100 127L99 123L96 125z"/>
<path style="fill:#b7a991; stroke:none;" d="M65 125L66 126L65 125z"/>
<path style="fill:#382214; stroke:none;" d="M95 127L96 128L95 127M97 127L98 128L97 127M106.667 127.333L107.333 127.667L106.667 127.333z"/>
<path style="fill:#8d6c37; stroke:none;" d="M118 127L119 128L118 127z"/>
<path style="fill:#b7a991; stroke:none;" d="M197.667 127.333L198.333 127.667L197.667 127.333M65 128L66 129L65 128z"/>
<path style="fill:#8d6c37; stroke:none;" d="M122.667 128.333L123.333 128.667L122.667 128.333z"/>
<path style="fill:#b7a991; stroke:none;" d="M200 128L200 129L204 131L201 132L203 144L186 144L186 134L185 134C183.057 137.575 181.206 142.281 186.264 144.411C192.386 146.99 203.275 145.596 210 146.089C226.956 147.332 244.033 150.272 261 151L261 132L200 128z"/>
<path style="fill:#8d6c37; stroke:none;" d="M120 129L121 130L120 129M125 130L126 131L125 130z"/>
<path style="fill:#bd9d53; stroke:none;" d="M156 132L160 134C159.386 131.149 158.697 131.146 156 132z"/>
<path style="fill:#b7a991; stroke:none;" d="M68 132L69 133L68 132M68 135L67 140L68 140L68 135M125 144L129 141L134 143L134 142L130 137L133 136C127.478 134.484 125.43 139.308 125 144z"/>
<path style="fill:#bd9d53; stroke:none;" d="M151 135L150 137L151 135M145 137L146 138L145 137z"/>
<path style="fill:#382214; stroke:none;" d="M101 138L100 142L101 138z"/>
<path style="fill:#8d6c37; stroke:none;" d="M71 139L72 140L71 139z"/>
<path style="fill:#b7a991; stroke:none;" d="M171 141L171 145L179 141L171 141z"/>
<path style="fill:#382214; stroke:none;" d="M0 141C1.49549 150.492 14.0418 155.287 20 162L0 149L11 161L0 155L2 158L2 159C-1.44316 163.589 2.36605 166.363 7.00077 167.699C15.7273 170.215 24.2093 167.914 33 168L33 169L26 170L26 171L29 171L29 172L15 173L15 174L60 176L60 175C55.7698 174.021 46.5163 172.778 48 167L36 168L36 167L38 166L0 141z"/>
<path style="fill:#bd9d53; stroke:none;" d="M2 142L3 143L2 142z"/>
<path style="fill:#e8d3a3; stroke:none;" d="M3 142L4 143L3 142M6 142L7 143L6 142z"/>
<path style="fill:#382214; stroke:none;" d="M115 142L117 144L115 142z"/>
<path style="fill:#8d6c37; stroke:none;" d="M3 143L4 144L3 143z"/>
<path style="fill:#b7a991; stroke:none;" d="M67 143L68 144L67 143z"/>
<path style="fill:#382214; stroke:none;" d="M80 143L81 144L80 143z"/>
<path style="fill:#8d6c37; stroke:none;" d="M4 144L5 145L4 144z"/>
<path style="fill:#e8d3a3; stroke:none;" d="M59 144L60 145L59 144z"/>
<path style="fill:#bd9d53; stroke:none;" d="M66 144C67.6658 150.494 71.2007 153.624 67 160L69 160L69 161L67 161L67 162L72 162L70 158C78.7914 152.763 71.1491 147.798 66 144z"/>
<path style="fill:#382214; stroke:none;" d="M85 144L85 145L88 145L85 144M92.3333 144.667L92.6667 145.333L92.3333 144.667M101.333 144.667L101.667 145.333L101.333 144.667M108.333 144.667L108.667 145.333L108.333 144.667z"/>
<path style="fill:#8d6c37; stroke:none;" d="M0 145L0 149L1 149L0 145z"/>
<path style="fill:#bd9d53; stroke:none;" d="M72.3333 145.667L72.6667 146.333L72.3333 145.667z"/>
<path style="fill:#b7a991; stroke:none;" d="M163.333 145.667L163.667 146.333L163.333 145.667z"/>
<path style="fill:#bd9d53; stroke:none;" d="M0 146L1 147L0 146M204 146L204 147L214 147L204 146z"/>
<path style="fill:#b7a991; stroke:none;" d="M0 147L1 148L0 147z"/>
<path style="fill:#bd9d53; stroke:none;" d="M1 149L4 149L3 147L1 149z"/>
<path style="fill:#8d6c37; stroke:none;" d="M3 147L4 148L3 147M8 147L9 148L8 147z"/>
<path style="fill:#b7a991; stroke:none;" d="M160 147L161 148L160 147z"/>
<path style="fill:#bd9d53; stroke:none;" d="M214 147L214 148L249 153L248 158L244 158L245 161C206.404 178.066 162.203 169 121 169L121 170L134 171L134 172L132 172L132 173L175 174.999L196 178L166 178L166 179L211 178L209 181L213 181L212 178L222 184L219 190L217 183L216 183L214 187L213 187L210 189L205 191L205 192L261 194L261 151L214 147z"/>
<path style="fill:#8d6c37; stroke:none;" d="M4 148C3.89038 155.204 14.1385 159.547 20 162L4 148M9 148L10 149L9 148z"/>
<path style="fill:#b7a991; stroke:none;" d="M67 148L68 149L67 148M2 149L3 150L2 149M59.3333 149.667L59.6667 150.333L59.3333 149.667z"/>
<path style="fill:#8d6c37; stroke:none;" d="M12 150L13 151L12 150M0 151C0.942103 156.839 5.76263 159.199 11 161L0 151M13 151L14 152L13 151z"/>
<path style="fill:#b7a991; stroke:none;" d="M69 151L69 155L70 155L69 151z"/>
<path style="fill:#8d6c37; stroke:none;" d="M16 153L17 154L16 153M17 154L18 155L17 154z"/>
<path style="fill:#bd9d53; stroke:none;" d="M19 155L20 156L19 155z"/>
<path style="fill:#e8d3a3; stroke:none;" d="M20 155L21 156L20 155z"/>
<path style="fill:#382214; stroke:none;" d="M91 155C88.0947 160.237 84.7152 159.375 80 157L80 161L75 160L75 161L110 165.834L123 165L127 165L127 164L123 164L115 158L113 160L112 160L107 159L106 156L92 158L93 155L91 155z"/>
<path style="fill:#8d6c37; stroke:none;" d="M20 156L21 157L20 156z"/>
<path style="fill:#e8d3a3; stroke:none;" d="M22 156L23 157L22 156z"/>
<path style="fill:#b7a991; stroke:none;" d="M69 156L70 157L69 156z"/>
<path style="fill:#8d6c37; stroke:none;" d="M0 157L0 160L2 159L2 158L0 157z"/>
<path style="fill:#bd9d53; stroke:none;" d="M22 157L23 158L22 157z"/>
<path style="fill:#8d6c37; stroke:none;" d="M23 158L24 159L23 158z"/>
<path style="fill:#b7a991; stroke:none;" d="M68 158L69 159L68 158z"/>
<path style="fill:#8d6c37; stroke:none;" d="M2 159L6 163L2 159M25 159L26 160L25 159M26 160L27 161L26 160z"/>
<path style="fill:#e8d3a3; stroke:none;" d="M28 160L29 161L28 160z"/>
<path style="fill:#8d6c37; stroke:none;" d="M11 161L11 162L15 163L15 162L11 161M28 161L29 162L28 161M21 162L22 163L21 162M30 162L31 163L30 162z"/>
<path style="fill:#e8d3a3; stroke:none;" d="M56 163L56 164L86 165C77.3401 159.812 65.4782 162.974 56 163z"/>
<path style="fill:#b7a991; stroke:none;" d="M75 162L75 163L78 163L75 162z"/>
<path style="fill:#bd9d53; stroke:none;" d="M78.6667 162.333L79.3333 162.667L78.6667 162.333z"/>
<path style="fill:#8d6c37; stroke:none;" d="M80 162L80 163L83 163L80 162z"/>
<path style="fill:#382214; stroke:none;" d="M135 162L136 163L135 162z"/>
<path style="fill:#8d6c37; stroke:none;" d="M7 163L9 165L7 163M25 163L25 164L28 165L25 163M32 163L33 164L32 163z"/>
<path style="fill:#b7a991; stroke:none;" d="M83 163L84 164L83 163z"/>
<path style="fill:#bd9d53; stroke:none;" d="M84 163L85 164L84 163z"/>
<path style="fill:#8d6c37; stroke:none;" d="M19 164L20 165L19 164z"/>
<path style="fill:#b7a991; stroke:none;" d="M25.6667 164.333L26.3333 164.667L25.6667 164.333z"/>
<path style="fill:#8d6c37; stroke:none;" d="M34 164L35 165L34 164z"/>
<path style="fill:#e8d3a3; stroke:none;" d="M48 165L48 166L56 165L48 165z"/>
<path style="fill:#bd9d53; stroke:none;" d="M59 164L60 165L59 164M76 164L77 165L76 164z"/>
<path style="fill:#b7a991; stroke:none;" d="M77 164L77 165L80 165L77 164M85 165L85 166L138 178C133.925 174.967 128.829 174.726 124 173.525C112.817 170.743 96.3327 163.318 85 165z"/>
<path style="fill:#8d6c37; stroke:none;" d="M0 165L7 171L0 172L0 173L29 172L29 171L26 171L26 170L33 169L33 168L12 171L12 170L21 170L21 169L0 165M12 165L12 166C13.9601 166.653 14.554 167 12 167L12 168L15 167L15 166L12 165z"/>
<path style="fill:#b7a991; stroke:none;" d="M19.6667 165.333L20.3333 165.667L19.6667 165.333z"/>
<path style="fill:#8d6c37; stroke:none;" d="M25 165L26 166L25 165M37 165L38 166L37 165z"/>
<path style="fill:#b7a991; stroke:none;" d="M52.6667 165.333L53.3333 165.667L52.6667 165.333z"/>
<path style="fill:#382214; stroke:none;" d="M59 165L59 166L66 166L59 165M73 165L73 166L80 166L73 165z"/>
<path style="fill:#bd9d53; stroke:none;" d="M84 165L85 166L84 165M91 165L92 166L91 165M0 166L4 170L0 166z"/>
<path style="fill:#b7a991; stroke:none;" d="M12.6667 166.333L13.3333 166.667L12.6667 166.333z"/>
<path style="fill:#8d6c37; stroke:none;" d="M19.6667 166.333L20.3333 166.667L19.6667 166.333M36 167L36 168L41 168L36 167z"/>
<path style="fill:#e8d3a3; stroke:none;" d="M42 166L43 167L42 166z"/>
<path style="fill:#bd9d53; stroke:none;" d="M46.6667 166.333L47.3333 166.667L46.6667 166.333M49 166L49 167L52 167L49 166z"/>
<path style="fill:#382214; stroke:none;" d="M81 166L81 167L86 167L81 166z"/>
<path style="fill:#b7a991; stroke:none;" d="M0 167L0 171L5 171L5 170L0 167z"/>
<path style="fill:#8d6c37; stroke:none;" d="M42.6667 167.333L43.3333 167.667L42.6667 167.333z"/>
<path style="fill:#bd9d53; stroke:none;" d="M54 167L56 169L56 167L54 167z"/>
<path style="fill:#382214; stroke:none;" d="M86 167L86 168L90 168L86 167z"/>
<path style="fill:#bd9d53; stroke:none;" d="M99 167L100 168L99 167z"/>
<path style="fill:#382214; stroke:none;" d="M91.6667 168.333L92.3333 168.667L91.6667 168.333z"/>
<path style="fill:#bd9d53; stroke:none;" d="M103 168L104 169L103 168M8 169L9 170L8 169z"/>
<path style="fill:#b7a991; stroke:none;" d="M9 169L10 170L9 169z"/>
<path style="fill:#bd9d53; stroke:none;" d="M10 169L11 170L10 169M20 171L23 169L20 171z"/>
<path style="fill:#b7a991; stroke:none;" d="M23 169L24 170L23 169z"/>
<path style="fill:#bd9d53; stroke:none;" d="M101 169L102 170L101 169M107 169L108 170L107 169M4 172L7 170L4 172z"/>
<path style="fill:#b7a991; stroke:none;" d="M12 170L12 171L20 171L12 170z"/>
<path style="fill:#bd9d53; stroke:none;" d="M54 170L54 171L58 171L54 170z"/>
<path style="fill:#b7a991; stroke:none;" d="M52 171L52 172C74.3529 177.171 98.8571 181.936 122 182L122 181L67 170L67 171L69 172L68 175L66 171L52 171z"/>
<path style="fill:#e8d3a3; stroke:none;" d="M64 171L68 175L69 171L64 171z"/>
<path style="fill:#bd9d53; stroke:none;" d="M75.6667 170.333L76.3333 170.667L75.6667 170.333M111 170L112 171L111 170M0 171L1 172L0 171M51 171L52 172L51 171M82.6667 171.333L83.3333 171.667L82.6667 171.333M116 171L117 172L116 171z"/>
<path style="fill:#b7a991; stroke:none;" d="M130 171L130 172L134 172L130 171z"/>
<path style="fill:#bd9d53; stroke:none;" d="M54 172L55 173L54 172M88 172L89 173L88 172M120 172L121 173L120 172z"/>
<path style="fill:#b7a991; stroke:none;" d="M135 172L135 173L163 177.83L196 178L179 175.004L135 172M0 173L0 190L10 189L8 187L8 186C16.5792 186 23.9179 188.324 32.0394 188.945C40.4336 189.587 52.6273 188.491 59 195L61 194L64 202L85 194L88 194L88 197C113.874 197.071 142.608 194.885 168 201C162.427 191.214 144.873 190.583 135 191L136 189C123.773 188.991 111.162 185.023 99 183.271C66.5461 178.594 32.8364 173.004 0 173z"/>
<path style="fill:#bd9d53; stroke:none;" d="M10 173L11 174L10 173M56.6667 173.333L57.3333 173.667L56.6667 173.333M91.6667 173.333L92.3333 173.667L91.6667 173.333M123 173L124 174L123 173M137 173L137 174L140 174L137 173M17 174L18 175L17 174z"/>
<path style="fill:#8d6c37; stroke:none;" d="M18 174L18 175L25 175L18 174M57 174L57 175L60 175L60 176L51 176L51 177L65 177L65 176L57 174z"/>
<path style="fill:#bd9d53; stroke:none;" d="M60 174L61 175L60 174M95 174L96 175L95 174M142 174L142 175L146 175L142 174M27 175L28 176L27 175z"/>
<path style="fill:#8d6c37; stroke:none;" d="M28 175L28 176L49 176L28 175z"/>
<path style="fill:#bd9d53; stroke:none;" d="M63 175L64 176L63 175M99 175L100 176L99 175M133 175L134 176L133 175z"/>
<path style="fill:#382214; stroke:none;" d="M138 175L138 176L146 177L146 176L138 175z"/>
<path style="fill:#bd9d53; stroke:none;" d="M147 175L147 176L150 176L147 175M43 176L43 177L51 177L43 176M56 177L56 178L74 177L56 177M102.667 176.333L103.333 176.667L102.667 176.333M126 176L127 177L126 176M136 176L137 177L136 176M152 176L152 177L155 177L152 176M78 177L78 178L82 178L78 177M106.667 177.333L107.333 177.667L106.667 177.333z"/>
<path style="fill:#382214; stroke:none;" d="M147 177L147 178L155 179L147 177z"/>
<path style="fill:#bd9d53; stroke:none;" d="M158 177L158 178L161 178L158 177M69.6667 178.333L70.3333 178.667L69.6667 178.333M87.6667 178.333L88.3333 178.667L87.6667 178.333M110.667 178.333L111.333 178.667L110.667 178.333M140.667 178.333L141.333 178.667L140.667 178.333z"/>
<path style="fill:#b7a991; stroke:none;" d="M142 178C145.378 182.458 154.658 183.281 160 184L160 183L154 182L155 180L142 178z"/>
<path style="fill:#bd9d53; stroke:none;" d="M144 178L145 179L144 178z"/>
<path style="fill:#8d6c37; stroke:none;" d="M212 178L215 189C216.346 184.434 216.487 180.474 212 178z"/>
<path style="fill:#bd9d53; stroke:none;" d="M73 179L73 180L76 180L73 179M94 179L94 180L97 180L94 179M113.667 179.333L114.333 179.667L113.667 179.333M152 179L152 180L155 180L152 179M80 180L80 181L83 181L80 180M104.667 180.333L105.333 180.667L104.667 180.333M118.667 180.333L119.333 180.667L118.667 180.333M144 180L145 181L144 180z"/>
<path style="fill:#e8d3a3; stroke:none;" d="M154 181C163.229 186.799 183.661 185.462 194 183C187.167 178.332 161.907 178.664 154 181z"/>
<path style="fill:#b7a991; stroke:none;" d="M164 180L164 181L184 181L164 180z"/>
<path style="fill:#bd9d53; stroke:none;" d="M184 180L184 181L192 181L184 180z"/>
<path style="fill:#382214; stroke:none;" d="M202 180L201 185L204 186L204 187L135 183L133 185L133 186L225 198C220.034 191.477 197.025 192.345 189 192L209 188L208 180L202 180z"/>
<path style="fill:#b7a991; stroke:none;" d="M210 180C208.856 184.174 209.127 187.63 213 190L212 180L210 180M216 181L219 190L222 184C220.38 181.059 219.314 180.501 216 181z"/>
<path style="fill:#bd9d53; stroke:none;" d="M86 181L86 182L90 182L86 181M112.667 181.333L113.333 181.667L112.667 181.333M120 182L120 183L124 182L120 182z"/>
<path style="fill:#b7a991; stroke:none;" d="M192 181L192 182L194 183L167 184L167 185L199 184L199 181L192 181z"/>
<path style="fill:#bd9d53; stroke:none;" d="M199 181L199 184L200 184L199 181z"/>
<path style="fill:#b7a991; stroke:none;" d="M223 181L227 184L223 181z"/>
<path style="fill:#bd9d53; stroke:none;" d="M93 182L93 183L98 183L93 182z"/>
<path style="fill:#382214; stroke:none;" d="M107.667 182.333L108.333 182.667L107.667 182.333z"/>
<path style="fill:#b7a991; stroke:none;" d="M123.667 182.333L124.333 182.667L123.667 182.333z"/>
<path style="fill:#bd9d53; stroke:none;" d="M125.667 182.333L126.333 182.667L125.667 182.333M152 182L153 183L152 182z"/>
<path style="fill:#e8d3a3; stroke:none;" d="M210 182L212 184L212 182L210 182z"/>
<path style="fill:#bd9d53; stroke:none;" d="M100 183L100 184L103 184L100 183z"/>
<path style="fill:#382214; stroke:none;" d="M114 183L114 184L119 184L114 183z"/>
<path style="fill:#bd9d53; stroke:none;" d="M107 184L107 185L110 185L107 184z"/>
<path style="fill:#382214; stroke:none;" d="M123 184L124 185L123 184z"/>
<path style="fill:#bd9d53; stroke:none;" d="M165.667 184.333L166.333 184.667L165.667 184.333M192.667 184.333L193.333 184.667L192.667 184.333M113 185L113 186L117 186L113 185M8 186L8 187L10 189L0 190L0 195C6.07894 195 21.7357 197.824 24 191L57 198C63.1438 209.499 75.5818 202.017 86 202C107.886 201.963 131.274 199.722 153 202.285C162.407 203.395 177.729 204.999 184 196L177 198L178 195L150 191L150 192L168 201C148.705 195.137 127.853 198.361 108 196.623C101.905 196.089 92.0781 200.29 88 194L85 194L64 202L61 194L59 195L46.9105 189.704L8 186M118 186L118 187L124 187L118 186M125 187L125 188L136 189L135 191L142 190L125 187M144 190L144 191L149 191L144 190M141 191L142 192L141 191z"/>
<path style="fill:#b7a991; stroke:none;" d="M214 191L215 192L214 191z"/>
<path style="fill:#bd9d53; stroke:none;" d="M186 197L187 198L186 197M0 198L0 202L11 201L0 198z"/>
<path style="fill:#8d6c37; stroke:none;" d="M174.667 198.333L175.333 198.667L174.667 198.333z"/>
<path style="fill:#bd9d53; stroke:none;" d="M209 200L210 205L212 205L213 200L209 200z"/>
</svg>
